<svg width="20" height="20" viewBox="0 0 20 20" fill="white" xmlns="http://www.w3.org/2000/svg">
<path d="M10.4526 13.2749L17.0901 6.30862C17.2009 6.19239 17.2627 6.03796 17.2627 5.87737C17.2627 5.71679 17.2009 5.56236 17.0901 5.44613L17.0826 5.43862C17.0289 5.38208 16.9642 5.33706 16.8925 5.30629C16.8209 5.27552 16.7437 5.25966 16.6657 5.25966C16.5877 5.25966 16.5105 5.27552 16.4389 5.30629C16.3672 5.33706 16.3025 5.38208 16.2488 5.43862L9.99883 11.9986L3.75133 5.43862C3.69761 5.38208 3.63295 5.33706 3.56128 5.30629C3.48962 5.27552 3.41244 5.25966 3.33445 5.25966C3.25646 5.25966 3.17928 5.27552 3.10762 5.30629C3.03595 5.33706 2.97129 5.38208 2.91758 5.43862L2.91008 5.44613C2.79927 5.56236 2.73746 5.71679 2.73746 5.87737C2.73746 6.03796 2.79927 6.19239 2.91008 6.30862L9.54758 13.2749C9.60595 13.3361 9.67615 13.3849 9.75393 13.4182C9.83172 13.4516 9.91546 13.4688 10.0001 13.4688C10.0847 13.4688 10.1684 13.4516 10.2462 13.4182C10.324 13.3849 10.3942 13.3361 10.4526 13.2749Z" fill="black"/>
</svg>
