<svg width="20" height="20" viewBox="0 0 20 20" fill="none" xmlns="http://www.w3.org/2000/svg">
<path fill-rule="evenodd" clip-rule="evenodd" d="M2.46663 9.99997C2.46663 6.21997 5.4133 2.46663 9.99997 2.46663C13.704 2.46663 15.536 5.20797 16.316 6.66663H14C13.8232 6.66663 13.6536 6.73687 13.5286 6.8619C13.4035 6.98692 13.3333 7.15649 13.3333 7.3333C13.3333 7.51011 13.4035 7.67968 13.5286 7.8047C13.6536 7.92973 13.8232 7.99997 14 7.99997H18C18.1768 7.99997 18.3463 7.92973 18.4714 7.8047C18.5964 7.67968 18.6666 7.51011 18.6666 7.3333V3.3333C18.6666 3.15649 18.5964 2.98692 18.4714 2.8619C18.3463 2.73687 18.1768 2.66663 18 2.66663C17.8232 2.66663 17.6536 2.73687 17.5286 2.8619C17.4035 2.98692 17.3333 3.15649 17.3333 3.3333V5.75063C16.3946 4.09463 14.2213 1.1333 9.99997 1.1333C4.58263 1.1333 1.1333 5.57997 1.1333 9.99997C1.1333 14.42 4.58263 18.8666 9.99997 18.8666C12.592 18.8666 14.7493 17.84 16.2853 16.2773C17.1004 15.446 17.7469 14.4649 18.1893 13.388C18.2226 13.307 18.2396 13.2202 18.2393 13.1327C18.2391 13.0451 18.2216 12.9585 18.1878 12.8777C18.1541 12.7969 18.1048 12.7236 18.0427 12.6619C17.9806 12.6001 17.9069 12.5512 17.826 12.518C17.745 12.4847 17.6582 12.4677 17.5707 12.468C17.4831 12.4682 17.3965 12.4857 17.3157 12.5195C17.2349 12.5532 17.1616 12.6025 17.0999 12.6646C17.0381 12.7267 16.9892 12.8003 16.956 12.8813C16.5792 13.7986 16.0287 14.6343 15.3346 15.3426C14.04 16.6626 12.22 17.5333 9.99997 17.5333C5.4133 17.5333 2.46663 13.78 2.46663 9.99997Z" fill="black"/>
</svg>