<svg width="20" height="20" viewBox="0 0 22 22" fill="none" xmlns="http://www.w3.org/2000/svg">
<path d="M11 1.375C9.09636 1.375 7.23546 1.9395 5.65264 2.99711C4.06982 4.05471 2.83616 5.55793 2.10766 7.31667C1.37917 9.07541 1.18856 11.0107 1.55995 12.8777C1.93133 14.7448 2.84802 16.4598 4.1941 17.8059C5.54018 19.152 7.25519 20.0687 9.12226 20.4401C10.9893 20.8114 12.9246 20.6208 14.6833 19.8923C16.4421 19.1638 17.9453 17.9302 19.0029 16.3474C20.0605 14.7645 20.625 12.9036 20.625 11C20.625 8.44729 19.6109 5.99913 17.8059 4.1941C16.0009 2.38906 13.5527 1.375 11 1.375ZM11 19.25C9.36831 19.25 7.77326 18.7661 6.41655 17.8596C5.05984 16.9531 4.00242 15.6646 3.378 14.1571C2.75358 12.6496 2.5902 10.9908 2.90853 9.3905C3.22685 7.79016 4.01259 6.32015 5.16637 5.16637C6.32016 4.01259 7.79017 3.22685 9.39051 2.90852C10.9909 2.59019 12.6497 2.75357 14.1571 3.37799C15.6646 4.00242 16.9531 5.05984 17.8596 6.41655C18.7661 7.77325 19.25 9.3683 19.25 11C19.25 13.188 18.3808 15.2865 16.8336 16.8336C15.2865 18.3808 13.188 19.25 11 19.25Z" fill="black"/>
<path d="M10.3125 5.5H11.6875V13.0625H10.3125V5.5ZM11 15.125C10.796 15.125 10.5967 15.1855 10.4271 15.2988C10.2575 15.4121 10.1253 15.5732 10.0472 15.7616C9.9692 15.95 9.94877 16.1574 9.98857 16.3574C10.0284 16.5575 10.1266 16.7412 10.2708 16.8855C10.415 17.0297 10.5988 17.1279 10.7988 17.1677C10.9989 17.2075 11.2062 17.1871 11.3946 17.109C11.5831 17.0309 11.7441 16.8988 11.8575 16.7292C11.9708 16.5596 12.0313 16.3602 12.0313 16.1562C12.0313 15.8827 11.9226 15.6204 11.7292 15.427C11.5358 15.2337 11.2735 15.125 11 15.125Z" fill="black"/>
</svg>
